<?xml version="1.0" encoding="UTF-8"?>
<svg xmlns="http://www.w3.org/2000/svg" xmlns:xlink="http://www.w3.org/1999/xlink" width="58pt" height="35pt" viewBox="0 0 58 35" version="1.1">
<g id="surface1">
<path style=" stroke:none;fill-rule:nonzero;fill:rgb(19.215686%,23.137255%,31.372549%);fill-opacity:1;" d="M 3.253906 32.460938 L 1.523438 32.460938 L 1.183594 33.269531 L 0 33.269531 L 1.816406 29.007812 L 2.960938 29.007812 L 4.777344 33.269531 L 3.59375 33.269531 Z M 2.917969 31.566406 L 2.367188 30.199219 L 1.816406 31.566406 Z M 2.917969 31.566406 "/>
<path style=" stroke:none;fill-rule:nonzero;fill:rgb(19.215686%,23.137255%,31.372549%);fill-opacity:1;" d="M 9.171875 31.136719 C 9.171875 29.859375 10.144531 28.921875 11.457031 28.921875 C 12.21875 28.921875 12.851562 29.21875 13.230469 29.730469 L 12.472656 30.414062 C 12.21875 30.074219 11.878906 29.902344 11.5 29.902344 C 10.820312 29.902344 10.355469 30.371094 10.355469 31.136719 C 10.355469 31.90625 10.820312 32.375 11.5 32.375 C 11.878906 32.375 12.21875 32.203125 12.472656 31.863281 L 13.230469 32.546875 C 12.808594 33.054688 12.21875 33.355469 11.457031 33.355469 C 10.144531 33.355469 9.171875 32.460938 9.171875 31.136719 Z M 9.171875 31.136719 "/>
<path style=" stroke:none;fill-rule:nonzero;fill:rgb(19.215686%,23.137255%,31.372549%);fill-opacity:1;" d="M 20.800781 32.460938 L 19.023438 32.460938 L 18.683594 33.269531 L 17.5 33.269531 L 19.320312 29.007812 L 20.460938 29.007812 L 22.277344 33.269531 L 21.136719 33.269531 Z M 20.460938 31.566406 L 19.910156 30.199219 L 19.363281 31.566406 Z M 20.460938 31.566406 "/>
<path style=" stroke:none;fill-rule:nonzero;fill:rgb(19.215686%,23.137255%,31.372549%);fill-opacity:1;" d="M 26.929688 29.050781 L 28.875 29.050781 C 30.226562 29.050781 31.199219 29.859375 31.199219 31.179688 C 31.199219 32.503906 30.269531 33.3125 28.875 33.3125 L 26.929688 33.3125 Z M 28.832031 32.332031 C 29.550781 32.332031 30.015625 31.90625 30.015625 31.179688 C 30.015625 30.457031 29.550781 30.03125 28.832031 30.03125 L 28.070312 30.03125 L 28.070312 32.375 L 28.832031 32.375 Z M 28.832031 32.332031 "/>
<path style=" stroke:none;fill-rule:nonzero;fill:rgb(19.215686%,23.137255%,31.372549%);fill-opacity:1;" d="M 39.398438 32.375 L 39.398438 33.3125 L 36.058594 33.3125 L 36.058594 29.050781 L 39.316406 29.050781 L 39.316406 29.988281 L 37.242188 29.988281 L 37.242188 30.710938 L 39.101562 30.710938 L 39.101562 31.609375 L 37.242188 31.609375 L 37.242188 32.375 Z M 39.398438 32.375 "/>
<path style=" stroke:none;fill-rule:nonzero;fill:rgb(19.215686%,23.137255%,31.372549%);fill-opacity:1;" d="M 48.023438 33.269531 L 48.023438 31.011719 L 46.964844 32.84375 L 46.460938 32.84375 L 45.402344 31.054688 L 45.402344 33.269531 L 44.304688 33.269531 L 44.304688 29.050781 L 45.277344 29.050781 L 46.710938 31.523438 L 48.148438 29.050781 L 49.121094 29.050781 L 49.121094 33.3125 L 48.023438 33.3125 Z M 48.023438 33.269531 "/>
<path style=" stroke:none;fill-rule:nonzero;fill:rgb(19.215686%,23.137255%,31.372549%);fill-opacity:1;" d="M 56.4375 31.777344 L 56.4375 33.3125 L 55.253906 33.3125 L 55.253906 31.777344 L 53.6875 29.050781 L 54.914062 29.050781 L 55.886719 30.753906 L 56.859375 29.050781 L 58 29.050781 Z M 56.4375 31.777344 "/>
<path style=" stroke:none;fill-rule:nonzero;fill:rgb(19.215686%,23.137255%,31.372549%);fill-opacity:1;" d="M 14.710938 18.734375 C 14.710938 17.628906 14.414062 16.734375 13.78125 16.007812 C 13.191406 15.328125 12.386719 14.773438 11.457031 14.304688 C 10.527344 13.878906 9.46875 13.449219 8.328125 13.109375 C 7.1875 12.769531 6.128906 12.34375 5.113281 11.875 C 4.101562 11.40625 3.210938 10.851562 2.410156 10.125 C 1.648438 9.445312 1.140625 8.507812 0.929688 7.355469 C 0.804688 6.375 0.972656 5.4375 1.351562 4.542969 C 1.734375 3.648438 2.324219 2.882812 3.042969 2.199219 C 3.761719 1.515625 4.648438 1.003906 5.664062 0.578125 C 6.679688 0.28125 7.734375 0.0664062 8.835938 0.0664062 C 10.0625 0.0664062 11.117188 0.28125 12.046875 0.707031 C 12.9375 1.132812 13.738281 1.644531 14.375 2.285156 C 15.007812 2.882812 15.515625 3.519531 15.851562 4.203125 C 16.191406 4.882812 16.402344 5.4375 16.488281 5.863281 L 13.867188 5.863281 C 13.441406 4.757812 12.765625 3.945312 11.835938 3.351562 C 10.90625 2.796875 9.933594 2.496094 8.878906 2.453125 C 8.160156 2.414062 7.484375 2.539062 6.765625 2.796875 C 6.046875 3.050781 5.453125 3.390625 4.902344 3.820312 C 4.355469 4.246094 3.972656 4.757812 3.679688 5.351562 C 3.382812 5.949219 3.339844 6.589844 3.464844 7.226562 C 3.636719 8.039062 4.101562 8.675781 4.863281 9.144531 C 5.582031 9.613281 6.46875 10.042969 7.484375 10.382812 C 8.496094 10.765625 9.597656 11.105469 10.695312 11.492188 C 11.835938 11.875 12.851562 12.34375 13.824219 12.898438 C 14.796875 13.492188 15.558594 14.21875 16.191406 15.15625 C 16.824219 16.050781 17.121094 17.246094 17.121094 18.734375 C 17.121094 19.84375 16.910156 20.824219 16.445312 21.675781 C 15.980469 22.527344 15.386719 23.296875 14.625 23.851562 C 13.867188 24.445312 12.976562 24.914062 12.003906 25.214844 C 11.035156 25.511719 9.976562 25.683594 8.878906 25.683594 C 7.777344 25.683594 6.722656 25.46875 5.664062 25.085938 C 4.609375 24.703125 3.71875 24.148438 2.917969 23.46875 C 2.113281 22.785156 1.480469 21.933594 1.015625 20.953125 C 0.507812 19.972656 0.296875 18.863281 0.296875 17.714844 L 2.664062 17.714844 C 2.664062 18.480469 2.832031 19.203125 3.171875 19.886719 C 3.507812 20.570312 3.929688 21.164062 4.523438 21.675781 C 5.074219 22.1875 5.75 22.570312 6.511719 22.871094 C 7.269531 23.167969 8.074219 23.296875 8.917969 23.296875 C 9.679688 23.253906 10.441406 23.167969 11.117188 23 C 11.835938 22.828125 12.429688 22.527344 12.976562 22.144531 C 13.527344 21.761719 13.949219 21.292969 14.289062 20.738281 C 14.542969 20.183594 14.710938 19.546875 14.710938 18.734375 "/>
<path style=" stroke:none;fill-rule:nonzero;fill:rgb(19.215686%,23.137255%,31.372549%);fill-opacity:1;" d="M 42.0625 0.0273438 L 49.628906 0.0273438 C 52.125 0.0273438 54.109375 0.621094 55.71875 1.859375 C 56.476562 2.582031 57.027344 3.433594 57.40625 4.5 C 57.789062 5.523438 58 6.632812 58 7.824219 C 58 10.511719 57.238281 12.511719 55.71875 13.878906 C 55.421875 14.132812 55.082031 14.347656 54.703125 14.558594 C 55.039062 14.773438 55.378906 14.941406 55.675781 15.199219 C 57.195312 16.5625 57.957031 18.308594 57.957031 20.484375 L 57.957031 25.726562 L 55.421875 25.726562 L 55.421875 20.484375 C 55.421875 19.757812 55.292969 19.121094 55.039062 18.523438 C 54.789062 17.96875 54.363281 17.457031 53.855469 16.988281 C 52.96875 16.179688 51.699219 15.753906 50.09375 15.753906 L 44.683594 15.753906 L 44.683594 25.726562 L 42.148438 25.726562 L 42.148438 0.0273438 Z M 53.816406 12.085938 C 54.871094 11.191406 55.421875 9.742188 55.421875 7.78125 C 55.421875 5.863281 54.871094 4.457031 53.816406 3.605469 C 52.84375 2.753906 51.449219 2.371094 49.671875 2.371094 L 44.597656 2.371094 L 44.597656 13.324219 L 49.671875 13.324219 C 51.449219 13.324219 52.84375 12.898438 53.816406 12.085938 "/>
<path style=" stroke:none;fill-rule:nonzero;fill:rgb(19.215686%,23.137255%,31.372549%);fill-opacity:1;" d="M 22.195312 8.25 C 22.195312 8.207031 22.195312 8.207031 22.195312 8.167969 C 22.152344 6.078125 22.152344 4.246094 22.152344 3.222656 C 22.152344 2.964844 22.152344 2.710938 22.152344 2.414062 C 25.617188 2.414062 28.914062 2.414062 32.210938 2.414062 C 34.453125 2.414062 35.933594 3.265625 36.523438 4.96875 C 37.199219 6.929688 36.734375 8.675781 35.214844 10 C 32.636719 12.171875 29.929688 14.21875 27.222656 16.347656 C 26.84375 15.878906 26.503906 15.496094 26.039062 14.984375 C 25.574219 16.605469 25.152344 18.097656 24.6875 19.632812 L 29.632812 19.632812 C 29.253906 19.121094 29 18.734375 28.621094 18.265625 C 31.199219 16.265625 33.734375 14.304688 36.230469 12.34375 C 38.851562 10.296875 39.820312 7.269531 38.765625 4.332031 C 37.878906 1.601562 35.46875 0.0664062 32.085938 0.0664062 C 29 0.0664062 25.871094 0.0664062 22.785156 0.0664062 L 19.867188 0.0664062 L 19.867188 11.960938 C 19.867188 11.960938 22.023438 11.40625 22.195312 8.71875 C 22.195312 8.59375 22.195312 8.421875 22.195312 8.25 "/>
<path style=" stroke:none;fill-rule:nonzero;fill:rgb(19.215686%,23.137255%,31.372549%);fill-opacity:1;" d="M 37.03125 14.003906 C 36.441406 14.472656 35.804688 14.984375 35.171875 15.453125 C 36.777344 17.074219 37.453125 18.863281 36.566406 20.910156 C 35.636719 23 33.820312 23.339844 31.789062 23.296875 C 29.675781 23.253906 27.5625 23.253906 25.449219 23.296875 L 25.152344 23.296875 C 24.941406 23.296875 24.6875 23.296875 24.476562 23.296875 C 23.757812 23.296875 23.082031 23.296875 22.320312 23.296875 L 22.195312 23.296875 L 22.195312 25.683594 C 22.914062 25.683594 23.632812 25.683594 24.351562 25.683594 C 27.4375 25.683594 30.5625 25.726562 33.648438 25.597656 C 36.230469 25.46875 38.34375 23.507812 39.0625 20.996094 C 39.820312 18.4375 38.933594 15.453125 37.03125 14.003906 "/>
<path style=" stroke:none;fill-rule:nonzero;fill:rgb(9.019608%,68.235294%,29.411765%);fill-opacity:1;" d="M 22.277344 17.457031 C 22.449219 16.265625 23.039062 14.941406 23.925781 14.132812 C 25.871094 12.300781 28.027344 10.765625 30.140625 9.0625 C 30.5625 9.53125 30.859375 9.914062 31.324219 10.425781 C 31.746094 8.761719 32.128906 7.3125 32.507812 5.78125 L 27.691406 5.78125 C 28.070312 6.289062 28.367188 6.71875 28.703125 7.144531 C 26.84375 8.59375 24.984375 10.042969 23.167969 11.449219 C 21.390625 12.855469 19.996094 14.558594 19.867188 16.859375 C 19.742188 19.714844 19.867188 22.613281 19.867188 25.683594 C 20.671875 25.683594 21.476562 25.683594 22.234375 25.683594 L 22.234375 22.914062 C 22.195312 20.996094 22.023438 19.203125 22.277344 17.457031 Z M 22.277344 17.457031 "/>
</g>
</svg>
